<?xml version="1.0"?>
<svg version="1.1" xmlns="http://www.w3.org/2000/svg" width="260" height="200" style=""><path fill="#" d="M18.75,113.8l0-16.2l-2.55-0.6l0-1.65l5.55-0.15l3.45,0c3.75,0,6.45,1.65,6.45,5.25c0,2.7-1.38,4.23-3.9,4.86c3.15,0.72,4.65,2.49,4.65,4.89c0,4.2-2.7,6-7.65,6l-8.55,0l0-1.8z M21.75,104.2l2.25,0c2.7,0,4.5-1.05,4.5-3.45c0-2.1-1.5-3.15-3.45-3.15l-3.3,0l0,6.6z M21.75,113.8l3.15,0c2.85,0,4.35-1.2,4.35-3.45c0-3-1.95-3.9-5.25-3.9l-2.25,0l0,7.35z M44.808,100c4.5,0,7.05,3.15,7.05,7.95c0,5.1-3,8.55-7.5,8.55s-7.2-2.7-7.2-8.1c0-5.1,3.15-8.4,7.65-8.4z M44.658,102.4c-3,0-4.35,1.95-4.35,5.85c0,3.6,1.2,5.85,4.2,5.85s4.2-2.1,4.2-6c0-3.3-1.05-5.7-4.05-5.7z M63.966,100c4.5,0,7.05,3.15,7.05,7.95c0,5.1-3,8.55-7.5,8.55s-7.2-2.7-7.2-8.1c0-5.1,3.15-8.4,7.65-8.4z M63.816,102.4c-3,0-4.35,1.95-4.35,5.85c0,3.6,1.2,5.85,4.2,5.85s4.2-2.1,4.2-6c0-3.3-1.05-5.7-4.05-5.7z M83.124,106.3l2.25-3.78l-1.35-0.42l0-1.65l6.6-0.15l0,1.8l-2.13,0.36l-0.03,0l-3.09,4.59l3.87,6.75l0.03,0l2.25,0.75l0,1.65l-4.05,0l-4.29-7.65l-2.61,0l0,5.25l1.95,0.75l0,1.65l-7.5,0l0-1.65l2.55-0.75l0-18.3l-2.55-0.6l0-1.65l5.55-0.15l0,13.2l2.55,0z"/><path fill="#" d="M112.19,110.05l0.6,3.15s1.35,0.75,3.3,0.75c2.19,0,4.59-1.08,4.59-3.21c0-4.62-10.83-2.7-10.83-9.87c0-4.2,3.36-5.97,7.11-5.97c2.85,0,6.33,1.2,6.33,1.2l-0.15,5.1l-1.95,0l-1.02-3.21s-1.53-0.54-3.18-0.54c-2.7,0-3.99,1.41-3.99,2.91c0,4.56,10.8,2.82,10.8,9.57c0,4.5-3.63,6.57-7.83,6.57c-3.15,0-6.18-1.2-6.18-1.2l0-5.25l2.4,0z M138.608,100.45l0,2.25l-4.35,0l0,9.63c0,1.38,0.66,1.83,1.5,1.83c0.72,0,1.56-0.33,2.34-0.75l0.81,1.59c-1.35,0.99-2.7,1.5-4.2,1.5c-1.8,0-3.45-0.99-3.45-4.35l0-9.45l-3,0l0-1.95l3-0.3l0-3.78l3-0.6l0,4.38l4.35,0z M150.416,100c4.5,0,7.05,3.15,7.05,7.95c0,5.1-3,8.55-7.5,8.55s-7.2-2.7-7.2-8.1c0-5.1,3.15-8.4,7.65-8.4z M150.266,102.4c-3,0-4.35,1.95-4.35,5.85c0,3.6,1.2,5.85,4.2,5.85s4.2-2.1,4.2-6c0-3.3-1.05-5.7-4.05-5.7z M166.874,100.3l0.27,2.19c0.75-0.84,2.49-2.49,4.53-2.49c1.5,0,2.7,0.45,2.7,0.45l-0.15,4.35l-1.95,0l-0.45-2.25c-2.25,0-3.69,1.47-4.35,2.34l0,8.91l3,0.75l0,1.65l-8.55,0l0-1.65l2.55-0.75l0-11.1l-2.55-0.6l0-1.65z M191.432,108.7l-10.35,0c0,3.3,1.77,5.4,4.35,5.4c3,0,5.04-1.65,5.04-1.65l1.05,1.56s-2.79,2.49-6.39,2.49c-4.8,0-7.2-3.15-7.2-8.1c0-4.8,3-8.4,7.35-8.4s6.3,2.55,6.3,7.05c0,0.75-0.15,1.59-0.15,1.65z M181.202,106.45l7.2,0c0-2.25-0.87-4.11-3.27-4.11s-3.75,1.86-3.93,4.11z"/></svg>
